. 
  
http://www.torrenting.com/        :     Greatest Movie Tracker on The Net!!!
 
http://www.Torrenting.com          :     Once & For all ;)


               www . Torrenting . Com 

(((((((((((((= Enjoy No RAR releases =))))))))))))))))))))


...................................NFO:....................................

.[img]http://img849.imageshack.us/img849/544/arena2011.jpg[/img]

SAMURAi Presents to you:
Areana.2011.DVDRip.XviD.AC3-SAMURAi

Encode:
Don't do to many DVDRips unless its a good movie with no bluray source like this one
will def do a brrip when it comes out on bluray ;) thanks to my friend CM8 for sharing
is DVDr source :)

Source: CM8 DVDR(Thanks a lot for sharing :D )
Video: 720X304 @bitrate 1623 @2pass
Audio: AC3 5.1 @448 KB
Sample: yes, included  
http://www.imdb.com/title/tt1117581/

General
Complete name                    : Arena.2011.DVDRip.XviD.AC3-SAMURAi.avi
Format                           : AVI
Format/Info                      : Audio Video Interleave
File size                        : 1.37 GiB
Duration                         : 1h 34mn
Overall bit rate                 : 2 081 Kbps
Writing application              : Nandub v1.0rc2
Writing library                  : Nandub build 1852/release

Video
ID                               : 0
Format                           : MPEG-4 Visual
Format profile                   : Advanced Simple@L5
Format settings, BVOP            : 2
Format settings, QPel            : No
Format settings, GMC             : No warppoints
Format settings, Matrix          : Default (H.263)
Muxing mode                      : Packed bitstream
Codec ID                         : XVID
Codec ID/Hint                    : XviD
Duration                         : 1h 34mn
Bit rate                         : 1 623 Kbps
Width                            : 720 pixels
Height                           : 304 pixels
Display aspect ratio             : 2.35:1
Frame rate                       : 23.976 fps
Color space                      : YUV
Chroma subsampling               : 4:2:0
Bit depth                        : 8 bits
Scan type                        : Progressive
Compression mode                 : Lossy
Bits/(Pixel*Frame)               : 0.309
Stream size                      : 1.07 GiB (78%)
Writing library                  : XviD 64

Audio
ID                               : 1
Format                           : AC-3
Format/Info                      : Audio Coding 3
Mode extension                   : CM (complete main)
Codec ID                         : 2000
Duration                         : 1h 34mn
Bit rate mode                    : Constant
Bit rate                         : 448 Kbps
Channel(s)                       : 6 channels
Channel positions                : Front: L C R, Side: L R, LFE
Sampling rate                    : 48.0 KHz
Bit depth                        : 16 bits
Compression mode                 : Lossy
Delay relative to video          : 1s 0ms
Stream size                      : 302 MiB (22%)
Alignment                        : Split accross interleaves
Interleave, duration             : 42 ms (1.00 video frame)
Interleave, preload duration     : 500 ms


Plot
David Lord (Kellan Lutz) finds himself forced into the savage world of
a modern gladiatorial arena, where men fight to the death for the
entertainment of the online masses.


Cast
Kellan Lutz
Samuel L. Jackson
Nina Dobrev
James Remar
Daniel Dae Kim


Screenshots
[img]http://img213.imageshack.us/img213/255/vlcsnap2011100318h57m34.png[/img]
[img]http://img253.imageshack.us/img253/4258/vlcsnap2011100318h57m44.png[/img]
[img]http://img689.imageshack.us/img689/2561/vlcsnap2011100318h58m03.png[/img]
[img]http://img822.imageshack.us/img822/8924/vlcsnap2011100319h01m20.png[/img]


Greetz:
Cm8, Santi, Rx, Noir, Ember, NPW, Unknown, VIP3R, SiC, Flojo, and other
p2p groups come and past!

Contact:
Got any requests or anything to offer?
Contact me at SAMURAi@Hushmail.me